# Blender v2.90.1 OBJ File: 'sphereSectors.blend'
# www.blender.org
mtllib pizzaobj.mtl
o Sphere.002_Sphere.006
v -0.069309 0.995185 -0.069309
v -0.137950 0.980785 -0.137950
v -0.205262 0.956940 -0.205262
v -0.270598 0.923880 -0.270598
v -0.333328 0.881921 -0.333328
v -0.392847 0.831470 -0.392847
v -0.448584 0.773010 -0.448584
v -0.500000 0.707107 -0.500000
v -0.546601 0.634393 -0.546601
v -0.062181 0.995185 -0.075768
v -0.123764 0.980785 -0.150807
v -0.184155 0.956940 -0.224393
v -0.242772 0.923880 -0.295818
v -0.299051 0.881921 -0.364395
v -0.352450 0.831470 -0.429462
v -0.402455 0.773010 -0.490393
v -0.448584 0.707107 -0.546601
v -0.490393 0.634393 -0.597545
v -0.054455 0.995185 -0.081498
v -0.108386 0.980785 -0.162212
v -0.161273 0.956940 -0.241363
v -0.212607 0.923880 -0.318190
v -0.261894 0.881921 -0.391952
v -0.308658 0.831470 -0.461940
v -0.352450 0.773010 -0.527479
v -0.392847 0.707107 -0.587938
v -0.429461 0.634393 -0.642735
v -0.046205 0.995185 -0.086444
v -0.091965 0.980785 -0.172054
v -0.136839 0.956940 -0.256008
v -0.180396 0.923880 -0.337497
v -0.222215 0.881921 -0.415735
v -0.261894 0.831470 -0.489969
v -0.299051 0.773010 -0.559485
v -0.333328 0.707107 -0.623613
v -0.364394 0.634393 -0.681735
v -0.037509 0.995185 -0.090556
v -0.074658 0.980785 -0.180240
v -0.111087 0.956940 -0.268188
v -0.146446 0.923880 -0.353554
v -0.180395 0.881921 -0.435514
v -0.212607 0.831470 -0.513280
v -0.242771 0.773010 -0.586103
v -0.270598 0.707107 -0.653282
v -0.295818 0.634393 -0.714169
v -0.028453 0.995185 -0.093797
v -0.056631 0.980785 -0.186690
v -0.084265 0.956940 -0.277785
v -0.111087 0.923880 -0.366205
v -0.136839 0.881921 -0.451099
v -0.161273 0.831470 -0.531648
v -0.184154 0.773010 -0.607077
v -0.205262 0.707107 -0.676659
v -0.224393 0.634393 -0.739725
v -0.019122 0.995185 -0.096134
v -0.038060 0.980785 -0.191342
v -0.056631 0.956940 -0.284707
v -0.074657 0.923880 -0.375330
v -0.091965 0.881921 -0.462339
v -0.108386 0.831470 -0.544895
v -0.123764 0.773010 -0.622204
v -0.137949 0.707107 -0.693520
v -0.150806 0.634393 -0.758157
v -0.009607 0.995185 -0.097545
v -0.019122 0.980785 -0.194151
v -0.028452 0.956940 -0.288887
v -0.037509 0.923880 -0.380841
v -0.046204 0.881921 -0.469127
v -0.054455 0.831470 -0.552895
v -0.062181 0.773010 -0.631339
v -0.069308 0.707107 -0.703702
v -0.075768 0.634393 -0.769288
v 0.000001 0.995185 -0.098017
v 0.000001 0.980785 -0.195091
v 0.000001 0.956940 -0.290285
v 0.000001 0.923880 -0.382684
v 0.000001 0.881921 -0.471397
v 0.000001 0.831470 -0.555570
v 0.000001 0.773010 -0.634394
v 0.000001 0.707107 -0.707107
v 0.000001 0.634393 -0.773011
v 0.000000 1.000000 0.000001
v -0.068639 0.985235 -0.068570
v -0.136628 0.970981 -0.136492
v -0.203301 0.947376 -0.203099
v -0.268017 0.914648 -0.267750
v -0.330151 0.873111 -0.329823
v -0.389106 0.823165 -0.388720
v -0.444314 0.765292 -0.443873
v -0.495243 0.700048 -0.494752
v -0.541622 0.627682 -0.541108
v -0.061550 0.985234 -0.074999
v -0.122517 0.970981 -0.149288
v -0.182304 0.947375 -0.222139
v -0.240336 0.914646 -0.292850
v -0.296053 0.873108 -0.360742
v -0.348919 0.823162 -0.425159
v -0.398425 0.765288 -0.485482
v -0.444093 0.700044 -0.541129
v -0.485692 0.627678 -0.591818
v -0.053902 0.985234 -0.080671
v -0.107294 0.970981 -0.160578
v -0.159653 0.947375 -0.238938
v -0.210474 0.914646 -0.314997
v -0.259268 0.873108 -0.388023
v -0.305566 0.823162 -0.457312
v -0.348920 0.765288 -0.522196
v -0.388915 0.700044 -0.582052
v -0.425345 0.627678 -0.636574
v -0.045735 0.985234 -0.085566
v -0.091038 0.970981 -0.170321
v -0.135464 0.947375 -0.253436
v -0.178585 0.914646 -0.334110
v -0.219987 0.873108 -0.411567
v -0.259270 0.823162 -0.485061
v -0.296056 0.765288 -0.553882
v -0.329991 0.700044 -0.617370
v -0.360901 0.627678 -0.675200
v -0.037128 0.985234 -0.089637
v -0.073905 0.970981 -0.178424
v -0.109971 0.947375 -0.265494
v -0.144977 0.914646 -0.350006
v -0.178587 0.873108 -0.431148
v -0.210477 0.823162 -0.508138
v -0.240340 0.765288 -0.580234
v -0.267889 0.700044 -0.646742
v -0.292983 0.627678 -0.707323
v -0.028164 0.985234 -0.092844
v -0.056061 0.970981 -0.184809
v -0.083418 0.947375 -0.274994
v -0.109972 0.914646 -0.362531
v -0.135467 0.873108 -0.446577
v -0.159657 0.823162 -0.526321
v -0.182310 0.765288 -0.600997
v -0.203207 0.700044 -0.669886
v -0.222242 0.627678 -0.732635
v -0.018928 0.985234 -0.095158
v -0.037676 0.970981 -0.189414
v -0.056062 0.947375 -0.281847
v -0.073908 0.914646 -0.371565
v -0.091043 0.873108 -0.457704
v -0.107300 0.823162 -0.539436
v -0.122524 0.765288 -0.615973
v -0.136568 0.700044 -0.686578
v -0.149361 0.627678 -0.750890
v -0.009509 0.985234 -0.096555
v -0.018929 0.970981 -0.192195
v -0.028166 0.947375 -0.285984
v -0.037133 0.914646 -0.377020
v -0.045741 0.873108 -0.464424
v -0.053909 0.823162 -0.547356
v -0.061558 0.765288 -0.625016
v -0.068614 0.700044 -0.696658
v -0.075042 0.627678 -0.761915
v 0.000050 0.985235 -0.097022
v 0.000097 0.970981 -0.193125
v 0.000144 0.947376 -0.287369
v 0.000189 0.914648 -0.378845
v 0.000233 0.873111 -0.466672
v 0.000274 0.823165 -0.550007
v 0.000313 0.765292 -0.628044
v 0.000348 0.700048 -0.700033
v 0.000364 0.627682 -0.765606
v 0.000183 0.990012 0.000443
vt 0.750000 0.781250
vt 0.750000 0.812500
vt 0.734375 0.812500
vt 0.734375 0.781250
vt 0.750000 0.750000
vt 0.734375 0.750000
vt 0.750000 0.718750
vt 0.734375 0.718750
vt 0.750000 0.968750
vt 0.742188 1.000000
vt 0.734375 0.968750
vt 0.750000 0.937500
vt 0.734375 0.937500
vt 0.750000 0.906250
vt 0.734375 0.906250
vt 0.750000 0.875000
vt 0.734375 0.875000
vt 0.750000 0.843750
vt 0.734375 0.843750
vt 0.718750 0.968750
vt 0.718750 0.937500
vt 0.718750 0.906250
vt 0.718750 0.875000
vt 0.718750 0.843750
vt 0.718750 0.812500
vt 0.718750 0.781250
vt 0.718750 0.750000
vt 0.718750 0.718750
vt 0.726563 1.000000
vt 0.703125 0.906250
vt 0.703125 0.875000
vt 0.703125 0.843750
vt 0.703125 0.812500
vt 0.703125 0.781250
vt 0.703125 0.750000
vt 0.703125 0.718750
vt 0.710938 1.000000
vt 0.703125 0.968750
vt 0.703125 0.937500
vt 0.687500 0.843750
vt 0.687500 0.812500
vt 0.687500 0.781250
vt 0.687500 0.750000
vt 0.687500 0.718750
vt 0.695312 1.000000
vt 0.687499 0.968750
vt 0.687500 0.937500
vt 0.687500 0.906250
vt 0.687500 0.875000
vt 0.671875 0.781250
vt 0.671875 0.750000
vt 0.671875 0.718750
vt 0.679687 1.000000
vt 0.671874 0.968750
vt 0.671875 0.937500
vt 0.671875 0.906250
vt 0.671875 0.875000
vt 0.671875 0.843750
vt 0.671875 0.812500
vt 0.664062 1.000000
vt 0.656249 0.968750
vt 0.656250 0.937500
vt 0.656250 0.906250
vt 0.656250 0.875000
vt 0.656250 0.843750
vt 0.656250 0.812500
vt 0.656250 0.781250
vt 0.656250 0.750000
vt 0.656250 0.718750
vt 0.648437 1.000000
vt 0.640624 0.968750
vt 0.640624 0.937500
vt 0.640625 0.906250
vt 0.640625 0.875000
vt 0.640625 0.843750
vt 0.640625 0.812500
vt 0.640625 0.781250
vt 0.640625 0.750000
vt 0.640625 0.718750
vt 0.632811 1.000000
vt 0.624999 0.968750
vt 0.624999 0.937500
vt 0.625000 0.906250
vt 0.625000 0.875000
vt 0.625000 0.843750
vt 0.625000 0.812500
vt 0.625000 0.781250
vt 0.625000 0.750000
vt 0.625000 0.718750
vt 0.750000 0.781250
vt 0.734375 0.781250
vt 0.734375 0.812500
vt 0.750000 0.812500
vt 0.750000 0.750000
vt 0.734375 0.750000
vt 0.750000 0.718750
vt 0.734375 0.718750
vt 0.750000 0.968750
vt 0.734375 0.968750
vt 0.742188 1.000000
vt 0.750000 0.937500
vt 0.734375 0.937500
vt 0.750000 0.906250
vt 0.734375 0.906250
vt 0.750000 0.875000
vt 0.734375 0.875000
vt 0.750000 0.843750
vt 0.734375 0.843750
vt 0.718750 0.937500
vt 0.718750 0.968750
vt 0.718750 0.906250
vt 0.718750 0.875000
vt 0.718750 0.843750
vt 0.718750 0.812500
vt 0.718750 0.781250
vt 0.718750 0.750000
vt 0.718750 0.718750
vt 0.726563 1.000000
vt 0.703125 0.875000
vt 0.703125 0.906250
vt 0.703125 0.843750
vt 0.703125 0.812500
vt 0.703125 0.781250
vt 0.703125 0.750000
vt 0.703125 0.718750
vt 0.703125 0.968750
vt 0.710938 1.000000
vt 0.703125 0.937500
vt 0.687500 0.812500
vt 0.687500 0.843750
vt 0.687500 0.781250
vt 0.687500 0.750000
vt 0.687500 0.718750
vt 0.687499 0.968750
vt 0.695312 1.000000
vt 0.687500 0.937500
vt 0.687500 0.906250
vt 0.687500 0.875000
vt 0.671875 0.750000
vt 0.671875 0.781250
vt 0.671875 0.718750
vt 0.671874 0.968750
vt 0.679687 1.000000
vt 0.671875 0.937500
vt 0.671875 0.906250
vt 0.671875 0.875000
vt 0.671875 0.843750
vt 0.671875 0.812500
vt 0.656249 0.968750
vt 0.664062 1.000000
vt 0.656250 0.937500
vt 0.656250 0.906250
vt 0.656250 0.875000
vt 0.656250 0.843750
vt 0.656250 0.812500
vt 0.656250 0.781250
vt 0.656250 0.750000
vt 0.656250 0.718750
vt 0.640624 0.968750
vt 0.648437 1.000000
vt 0.640624 0.937500
vt 0.640625 0.906250
vt 0.640625 0.875000
vt 0.640625 0.843750
vt 0.640625 0.812500
vt 0.640625 0.781250
vt 0.640625 0.750000
vt 0.640625 0.718750
vt 0.624999 0.968750
vt 0.632811 1.000000
vt 0.624999 0.937500
vt 0.625000 0.906250
vt 0.625000 0.875000
vt 0.625000 0.843750
vt 0.625000 0.812500
vt 0.625000 0.781250
vt 0.625000 0.750000
vt 0.625000 0.718750
vn -0.4270 0.7719 -0.4711
vn -0.3741 0.8305 -0.4128
vn -0.3531 0.8308 -0.4303
vn -0.4030 0.7723 -0.4911
vn -0.4757 0.7059 -0.5248
vn -0.4491 0.7063 -0.5472
vn -0.4979 0.6711 -0.5493
vn -0.4701 0.6716 -0.5728
vn -0.0669 0.9950 -0.0738
vn -0.0183 0.9989 -0.0443
vn -0.0631 0.9950 -0.0769
vn -0.1322 0.9804 -0.1458
vn -0.1247 0.9805 -0.1519
vn -0.1961 0.9564 -0.2164
vn -0.1850 0.9565 -0.2255
vn -0.2581 0.9232 -0.2848
vn -0.2436 0.9233 -0.2968
vn -0.3177 0.8810 -0.3505
vn -0.2998 0.8813 -0.3653
vn -0.0553 0.9950 -0.0828
vn -0.1092 0.9805 -0.1634
vn -0.1621 0.9565 -0.2425
vn -0.2133 0.9233 -0.3193
vn -0.2626 0.8813 -0.3929
vn -0.3092 0.8308 -0.4628
vn -0.3530 0.7723 -0.5282
vn -0.3933 0.7063 -0.5886
vn -0.4117 0.6716 -0.6161
vn -0.1375 0.9565 -0.2572
vn -0.1810 0.9233 -0.3386
vn -0.2228 0.8813 -0.4168
vn -0.2624 0.8308 -0.4909
vn -0.2995 0.7723 -0.5603
vn -0.3337 0.7063 -0.6243
vn -0.3493 0.6716 -0.6535
vn -0.0469 0.9950 -0.0878
vn -0.0927 0.9805 -0.1734
vn -0.1809 0.8813 -0.4366
vn -0.2130 0.8308 -0.5143
vn -0.2431 0.7723 -0.5869
vn -0.2709 0.7063 -0.6540
vn -0.2835 0.6716 -0.6845
vn -0.0381 0.9950 -0.0920
vn -0.0752 0.9805 -0.1816
vn -0.1116 0.9565 -0.2695
vn -0.1469 0.9233 -0.3548
vn -0.1844 0.7723 -0.6080
vn -0.2055 0.7063 -0.6774
vn -0.2151 0.6716 -0.7090
vn -0.0289 0.9950 -0.0953
vn -0.0571 0.9805 -0.1881
vn -0.0847 0.9565 -0.2791
vn -0.1115 0.9233 -0.3675
vn -0.1372 0.8813 -0.4522
vn -0.1616 0.8308 -0.5327
vn -0.0194 0.9950 -0.0976
vn -0.0383 0.9805 -0.1928
vn -0.0569 0.9565 -0.2861
vn -0.0749 0.9233 -0.3766
vn -0.0922 0.8813 -0.4635
vn -0.1086 0.8308 -0.5459
vn -0.1239 0.7723 -0.6231
vn -0.1381 0.7063 -0.6943
vn -0.1446 0.6716 -0.7267
vn -0.0098 0.9950 -0.0991
vn -0.0193 0.9805 -0.1956
vn -0.0286 0.9565 -0.2903
vn -0.0376 0.9233 -0.3821
vn -0.0463 0.8813 -0.4703
vn -0.0546 0.8308 -0.5539
vn -0.0623 0.7723 -0.6322
vn -0.0694 0.7063 -0.7045
vn -0.0726 0.6716 -0.7374
vn -0.0049 0.9950 -0.0995
vn -0.0097 0.9804 -0.1966
vn -0.0143 0.9564 -0.2917
vn -0.0189 0.9232 -0.3839
vn -0.0232 0.8810 -0.4725
vn -0.0273 0.8305 -0.5564
vn -0.0312 0.7719 -0.6350
vn -0.0348 0.7059 -0.7074
vn -0.0364 0.6711 -0.7405
vn 0.4270 -0.7719 0.4710
vn 0.4031 -0.7723 0.4911
vn 0.3531 -0.8308 0.4302
vn 0.3742 -0.8305 0.4127
vn 0.4758 -0.7059 0.5248
vn 0.4491 -0.7063 0.5472
vn 0.4980 -0.6710 0.5493
vn 0.4701 -0.6715 0.5728
vn 0.0669 -0.9950 0.0738
vn 0.0631 -0.9950 0.0769
vn 0.0183 -0.9989 0.0441
vn 0.1322 -0.9804 0.1458
vn 0.1247 -0.9805 0.1519
vn 0.1961 -0.9564 0.2163
vn 0.1850 -0.9565 0.2255
vn 0.2582 -0.9232 0.2848
vn 0.2436 -0.9233 0.2968
vn 0.3177 -0.8810 0.3504
vn 0.2998 -0.8813 0.3653
vn 0.1092 -0.9805 0.1634
vn 0.0553 -0.9950 0.0827
vn 0.1620 -0.9565 0.2425
vn 0.2133 -0.9233 0.3193
vn 0.2625 -0.8813 0.3929
vn 0.3092 -0.8308 0.4628
vn 0.3530 -0.7723 0.5282
vn 0.3933 -0.7063 0.5886
vn 0.4117 -0.6715 0.6161
vn 0.1810 -0.9233 0.3386
vn 0.1375 -0.9565 0.2572
vn 0.2228 -0.8813 0.4168
vn 0.2624 -0.8308 0.4909
vn 0.2995 -0.7723 0.5603
vn 0.3337 -0.7063 0.6243
vn 0.3493 -0.6715 0.6535
vn 0.0469 -0.9950 0.0877
vn 0.0927 -0.9805 0.1733
vn 0.2130 -0.8308 0.5142
vn 0.1808 -0.8813 0.4366
vn 0.2431 -0.7723 0.5869
vn 0.2709 -0.7063 0.6540
vn 0.2836 -0.6715 0.6846
vn 0.0381 -0.9950 0.0919
vn 0.0752 -0.9805 0.1816
vn 0.1116 -0.9565 0.2695
vn 0.1469 -0.9233 0.3547
vn 0.2055 -0.7063 0.6774
vn 0.1844 -0.7723 0.6079
vn 0.2151 -0.6715 0.7091
vn 0.0289 -0.9950 0.0952
vn 0.0571 -0.9805 0.1881
vn 0.0847 -0.9565 0.2791
vn 0.1115 -0.9233 0.3674
vn 0.1372 -0.8813 0.4522
vn 0.1616 -0.8308 0.5326
vn 0.0194 -0.9950 0.0976
vn 0.0383 -0.9805 0.1928
vn 0.0569 -0.9565 0.2861
vn 0.0749 -0.9233 0.3766
vn 0.0922 -0.8813 0.4635
vn 0.1086 -0.8308 0.5459
vn 0.1239 -0.7723 0.6231
vn 0.1381 -0.7063 0.6943
vn 0.1446 -0.6715 0.7268
vn 0.0098 -0.9950 0.0990
vn 0.0193 -0.9805 0.1956
vn 0.0286 -0.9565 0.2903
vn 0.0376 -0.9233 0.3821
vn 0.0463 -0.8813 0.4703
vn 0.0545 -0.8308 0.5539
vn 0.0622 -0.7723 0.6322
vn 0.0693 -0.7063 0.7045
vn 0.0726 -0.6715 0.7375
vn 0.0049 -0.9950 0.0994
vn 0.0096 -0.9804 0.1965
vn 0.0143 -0.9564 0.2917
vn 0.0188 -0.9232 0.3839
vn 0.0232 -0.8810 0.4725
vn 0.0273 -0.8305 0.5564
vn 0.0311 -0.7719 0.6350
vn 0.0347 -0.7059 0.7075
vn 0.0363 -0.6710 0.7405
vn -0.7078 0.0094 0.7063
vn -0.7083 0.0095 0.7058
vn -0.7099 0.0137 0.7042
vn -0.7120 0.0174 0.7020
vn -0.7146 0.0205 0.6993
vn -0.7175 0.0227 0.6962
vn -0.7207 0.0241 0.6929
vn -0.7238 0.0243 0.6896
vn -0.7253 0.0239 0.6881
vn -0.4510 -0.7409 -0.4975
vn -0.4259 -0.7412 -0.5189
vn -0.3731 -0.7410 -0.5584
vn -0.3166 -0.7410 -0.5923
vn -0.2570 -0.7410 -0.6204
vn -0.1949 -0.7410 -0.6426
vn -0.1310 -0.7410 -0.6586
vn -0.0658 -0.7412 -0.6681
vn 1.0000 0.0095 -0.0018
vn 1.0000 0.0094 -0.0010
vn 0.9999 0.0137 -0.0040
vn 0.9998 0.0174 -0.0071
vn 0.9997 0.0205 -0.0108
vn 0.9996 0.0227 -0.0151
vn 0.9995 0.0241 -0.0197
vn 0.9994 0.0243 -0.0242
vn 0.9994 0.0240 -0.0263
vn -0.0329 -0.7410 -0.6708
vn -0.7080 0.0115 0.7062
vn 0.9999 0.0116 -0.0012
usemtl None
s 1
f 7/1/1 6/2/2 15/3/3 16/4/4
f 8/5/5 7/1/1 16/4/4 17/6/6
f 9/7/7 8/5/5 17/6/6 18/8/8
f 1/9/9 82/10/10 10/11/11
f 2/12/12 1/9/9 10/11/11 11/13/13
f 3/14/14 2/12/12 11/13/13 12/15/15
f 4/16/16 3/14/14 12/15/15 13/17/17
f 5/18/18 4/16/16 13/17/17 14/19/19
f 6/2/2 5/18/18 14/19/19 15/3/3
f 11/13/13 10/11/11 19/20/20 20/21/21
f 12/15/15 11/13/13 20/21/21 21/22/22
f 13/17/17 12/15/15 21/22/22 22/23/23
f 14/19/19 13/17/17 22/23/23 23/24/24
f 15/3/3 14/19/19 23/24/24 24/25/25
f 16/4/4 15/3/3 24/25/25 25/26/26
f 17/6/6 16/4/4 25/26/26 26/27/27
f 18/8/8 17/6/6 26/27/27 27/28/28
f 10/11/11 82/29/10 19/20/20
f 22/23/23 21/22/22 30/30/29 31/31/30
f 23/24/24 22/23/23 31/31/30 32/32/31
f 24/25/25 23/24/24 32/32/31 33/33/32
f 25/26/26 24/25/25 33/33/32 34/34/33
f 26/27/27 25/26/26 34/34/33 35/35/34
f 27/28/28 26/27/27 35/35/34 36/36/35
f 19/20/20 82/37/10 28/38/36
f 20/21/21 19/20/20 28/38/36 29/39/37
f 21/22/22 20/21/21 29/39/37 30/30/29
f 33/33/32 32/32/31 41/40/38 42/41/39
f 34/34/33 33/33/32 42/41/39 43/42/40
f 35/35/34 34/34/33 43/42/40 44/43/41
f 36/36/35 35/35/34 44/43/41 45/44/42
f 28/38/36 82/45/10 37/46/43
f 29/39/37 28/38/36 37/46/43 38/47/44
f 30/30/29 29/39/37 38/47/44 39/48/45
f 31/31/30 30/30/29 39/48/45 40/49/46
f 32/32/31 31/31/30 40/49/46 41/40/38
f 44/43/41 43/42/40 52/50/47 53/51/48
f 45/44/42 44/43/41 53/51/48 54/52/49
f 37/46/43 82/53/10 46/54/50
f 38/47/44 37/46/43 46/54/50 47/55/51
f 39/48/45 38/47/44 47/55/51 48/56/52
f 40/49/46 39/48/45 48/56/52 49/57/53
f 41/40/38 40/49/46 49/57/53 50/58/54
f 42/41/39 41/40/38 50/58/54 51/59/55
f 43/42/40 42/41/39 51/59/55 52/50/47
f 46/54/50 82/60/10 55/61/56
f 47/55/51 46/54/50 55/61/56 56/62/57
f 48/56/52 47/55/51 56/62/57 57/63/58
f 49/57/53 48/56/52 57/63/58 58/64/59
f 50/58/54 49/57/53 58/64/59 59/65/60
f 51/59/55 50/58/54 59/65/60 60/66/61
f 52/50/47 51/59/55 60/66/61 61/67/62
f 53/51/48 52/50/47 61/67/62 62/68/63
f 54/52/49 53/51/48 62/68/63 63/69/64
f 55/61/56 82/70/10 64/71/65
f 56/62/57 55/61/56 64/71/65 65/72/66
f 57/63/58 56/62/57 65/72/66 66/73/67
f 58/64/59 57/63/58 66/73/67 67/74/68
f 59/65/60 58/64/59 67/74/68 68/75/69
f 60/66/61 59/65/60 68/75/69 69/76/70
f 61/67/62 60/66/61 69/76/70 70/77/71
f 62/68/63 61/67/62 70/77/71 71/78/72
f 63/69/64 62/68/63 71/78/72 72/79/73
f 64/71/65 82/80/10 73/81/74
f 65/72/66 64/71/65 73/81/74 74/82/75
f 66/73/67 65/72/66 74/82/75 75/83/76
f 67/74/68 66/73/67 75/83/76 76/84/77
f 68/75/69 67/74/68 76/84/77 77/85/78
f 69/76/70 68/75/69 77/85/78 78/86/79
f 70/77/71 69/76/70 78/86/79 79/87/80
f 71/78/72 70/77/71 79/87/80 80/88/81
f 72/79/73 71/78/72 80/88/81 81/89/82
f 89/90/83 98/91/84 97/92/85 88/93/86
f 90/94/87 99/95/88 98/91/84 89/90/83
f 91/96/89 100/97/90 99/95/88 90/94/87
f 83/98/91 92/99/92 164/100/93
f 84/101/94 93/102/95 92/99/92 83/98/91
f 85/103/96 94/104/97 93/102/95 84/101/94
f 86/105/98 95/106/99 94/104/97 85/103/96
f 87/107/100 96/108/101 95/106/99 86/105/98
f 88/93/86 97/92/85 96/108/101 87/107/100
f 93/102/95 102/109/102 101/110/103 92/99/92
f 94/104/97 103/111/104 102/109/102 93/102/95
f 95/106/99 104/112/105 103/111/104 94/104/97
f 96/108/101 105/113/106 104/112/105 95/106/99
f 97/92/85 106/114/107 105/113/106 96/108/101
f 98/91/84 107/115/108 106/114/107 97/92/85
f 99/95/88 108/116/109 107/115/108 98/91/84
f 100/97/90 109/117/110 108/116/109 99/95/88
f 92/99/92 101/110/103 164/118/93
f 104/112/105 113/119/111 112/120/112 103/111/104
f 105/113/106 114/121/113 113/119/111 104/112/105
f 106/114/107 115/122/114 114/121/113 105/113/106
f 107/115/108 116/123/115 115/122/114 106/114/107
f 108/116/109 117/124/116 116/123/115 107/115/108
f 109/117/110 118/125/117 117/124/116 108/116/109
f 101/110/103 110/126/118 164/127/93
f 102/109/102 111/128/119 110/126/118 101/110/103
f 103/111/104 112/120/112 111/128/119 102/109/102
f 115/122/114 124/129/120 123/130/121 114/121/113
f 116/123/115 125/131/122 124/129/120 115/122/114
f 117/124/116 126/132/123 125/131/122 116/123/115
f 118/125/117 127/133/124 126/132/123 117/124/116
f 110/126/118 119/134/125 164/135/93
f 111/128/119 120/136/126 119/134/125 110/126/118
f 112/120/112 121/137/127 120/136/126 111/128/119
f 113/119/111 122/138/128 121/137/127 112/120/112
f 114/121/113 123/130/121 122/138/128 113/119/111
f 126/132/123 135/139/129 134/140/130 125/131/122
f 127/133/124 136/141/131 135/139/129 126/132/123
f 119/134/125 128/142/132 164/143/93
f 120/136/126 129/144/133 128/142/132 119/134/125
f 121/137/127 130/145/134 129/144/133 120/136/126
f 122/138/128 131/146/135 130/145/134 121/137/127
f 123/130/121 132/147/136 131/146/135 122/138/128
f 124/129/120 133/148/137 132/147/136 123/130/121
f 125/131/122 134/140/130 133/148/137 124/129/120
f 128/142/132 137/149/138 164/150/93
f 129/144/133 138/151/139 137/149/138 128/142/132
f 130/145/134 139/152/140 138/151/139 129/144/133
f 131/146/135 140/153/141 139/152/140 130/145/134
f 132/147/136 141/154/142 140/153/141 131/146/135
f 133/148/137 142/155/143 141/154/142 132/147/136
f 134/140/130 143/156/144 142/155/143 133/148/137
f 135/139/129 144/157/145 143/156/144 134/140/130
f 136/141/131 145/158/146 144/157/145 135/139/129
f 137/149/138 146/159/147 164/160/93
f 138/151/139 147/161/148 146/159/147 137/149/138
f 139/152/140 148/162/149 147/161/148 138/151/139
f 140/153/141 149/163/150 148/162/149 139/152/140
f 141/154/142 150/164/151 149/163/150 140/153/141
f 142/155/143 151/165/152 150/164/151 141/154/142
f 143/156/144 152/166/153 151/165/152 142/155/143
f 144/157/145 153/167/154 152/166/153 143/156/144
f 145/158/146 154/168/155 153/167/154 144/157/145
f 146/159/147 155/169/156 164/170/93
f 147/161/148 156/171/157 155/169/156 146/159/147
f 148/162/149 157/172/158 156/171/157 147/161/148
f 149/163/150 158/173/159 157/172/158 148/162/149
f 150/164/151 159/174/160 158/173/159 149/163/150
f 151/165/152 160/175/161 159/174/160 150/164/151
f 152/166/153 161/176/162 160/175/161 151/165/152
f 153/167/154 162/177/163 161/176/162 152/166/153
f 154/168/155 163/178/164 162/177/163 153/167/154
f 1/9/165 2/12/166 84/101/166 83/98/165
f 2/12/166 3/14/167 85/103/167 84/101/166
f 3/14/167 4/16/168 86/105/168 85/103/167
f 4/16/168 5/18/169 87/107/169 86/105/168
f 5/18/169 6/2/170 88/93/170 87/107/169
f 6/2/170 7/1/171 89/90/171 88/93/170
f 7/1/171 8/5/172 90/94/172 89/90/171
f 8/5/172 9/7/173 91/96/173 90/94/172
f 9/7/174 18/8/175 100/97/175 91/96/174
f 18/8/175 27/28/176 109/117/176 100/97/175
f 27/28/176 36/36/177 118/125/177 109/117/176
f 36/36/177 45/44/178 127/133/178 118/125/177
f 45/44/178 54/52/179 136/141/179 127/133/178
f 54/52/179 63/69/180 145/158/180 136/141/179
f 63/69/180 72/79/181 154/168/181 145/158/180
f 74/82/182 73/81/183 155/169/183 156/171/182
f 75/83/184 74/82/182 156/171/182 157/172/184
f 76/84/185 75/83/184 157/172/184 158/173/185
f 77/85/186 76/84/185 158/173/185 159/174/186
f 78/86/187 77/85/186 159/174/186 160/175/187
f 79/87/188 78/86/187 160/175/187 161/176/188
f 80/88/189 79/87/188 161/176/188 162/177/189
f 81/89/190 80/88/189 162/177/189 163/178/190
f 72/79/181 81/89/191 163/178/191 154/168/181
f 82/10/192 1/9/165 83/98/165 164/100/192
f 73/81/183 82/80/193 164/170/193 155/169/183
